<?xml version="1.0" encoding="UTF-8" standalone="no"?>
<!DOCTYPE svg PUBLIC "-//W3C//DTD SVG 1.1//EN" "http://www.w3.org/Graphics/SVG/1.1/DTD/svg11.dtd">
<svg width="100%" height="100%" viewBox="0 0 640 192" version="1.1" xmlns="http://www.w3.org/2000/svg" xmlns:xlink="http://www.w3.org/1999/xlink" xml:space="preserve" xmlns:serif="http://www.serif.com/" style="fill-rule:evenodd;clip-rule:evenodd;stroke-linejoin:round;stroke-miterlimit:2;">
    <g transform="matrix(1,0,0,1,-672,-1129)">
        <g id="画板1" transform="matrix(0.5,0,0,0.15,672,1129)">
            <rect x="0" y="0" width="1280" height="1280" style="fill:rgb(67,26,80);"/>
            <g transform="matrix(1,0,0,3.33333,128,-1600)">
                <path d="M160,640L192,640L192,704L160,704L160,640L128,640L128,736L224,736L224,608L160,608L160,640Z" style="fill:rgb(191,55,241);"/>
            </g>
            <g transform="matrix(1,0,0,3.33333,128,-1600)">
                <path d="M416,640L448,640L448,704L416,704L416,640L384,640L384,736L480,736L480,608L416,608L416,640Z" style="fill:rgb(191,55,241);"/>
            </g>
            <g transform="matrix(1,0,0,3.33333,128,-1600)">
                <path d="M672,640L640,640L640,736L672,736L672,640ZM512,608L512,736L544,736L544,640L576,640L576,608L512,608ZM576,608L576,736L608,736L608,640L640,640L640,608L576,608Z" style="fill:rgb(191,55,241);"/>
            </g>
            <g transform="matrix(1,0,0,3.33333,128,-1600)">
                <path d="M736,672L736,640L704,640L704,704L736,704L736,736L800,736L800,704L736,704L768,704L768,672L736,672ZM800,640L768,640L768,672L800,672L800,640ZM800,608L736,608L736,640L800,640L800,608Z" style="fill:rgb(191,55,241);"/>
            </g>
            <g transform="matrix(1,0,0,3.33333,128,-1600)">
                <path d="M320,640L320,704L288,704L288,736L320,736L320,800L352,800L352,640L320,640ZM288,608L256,608L256,704L288,704L288,608Z" style="fill:rgb(191,55,241);"/>
            </g>
            <g transform="matrix(1,0,0,3.33333,32,-1600)">
                <path d="M960,736L960,704L992,704L992,672L960,672L960,704L928,704L928,736L960,736ZM1024,640L992,640L992,672L1024,672L1024,640ZM992,608L960,608L960,640L992,640L992,608ZM960,576L928,576L928,608L960,608L960,576Z" style="fill:rgb(191,55,241);"/>
            </g>
            <g transform="matrix(1,0,0,3.33333,1.81899e-12,-1600)">
                <path d="M960,736L960,704L992,704L992,672L960,672L960,704L928,704L928,736L960,736ZM1024,640L992,640L992,672L1024,672L1024,640ZM992,608L960,608L960,640L992,640L992,608ZM960,576L928,576L928,608L960,608L960,576Z" style="fill:white;"/>
            </g>
            <g transform="matrix(1,0,0,3.33333,96,-1600)">
                <path d="M160,640L192,640L192,704L160,704L160,640L128,640L128,736L224,736L224,608L160,608L160,640Z" style="fill:white;"/>
            </g>
            <g transform="matrix(1,0,0,3.33333,96,-1600)">
                <path d="M416,640L448,640L448,704L416,704L416,640L384,640L384,736L480,736L480,608L416,608L416,640Z" style="fill:white;"/>
            </g>
            <g transform="matrix(1,0,0,3.33333,96,-1600)">
                <path d="M672,640L640,640L640,736L672,736L672,640ZM512,608L512,736L544,736L544,640L576,640L576,608L512,608ZM576,608L576,736L608,736L608,640L640,640L640,608L576,608Z" style="fill:white;"/>
            </g>
            <g transform="matrix(1,0,0,3.33333,96,-1600)">
                <path d="M736,672L736,640L704,640L704,704L736,704L736,736L800,736L800,704L736,704L768,704L768,672L736,672ZM800,640L768,640L768,672L800,672L800,640ZM800,608L736,608L736,640L800,640L800,608Z" style="fill:white;"/>
            </g>
            <g transform="matrix(1,0,0,3.33333,96,-1600)">
                <path d="M320,640L320,704L288,704L288,736L320,736L320,800L352,800L352,640L320,640ZM288,608L256,608L256,704L288,704L288,608Z" style="fill:white;"/>
            </g>
        </g>
    </g>
</svg>
